<?xml version="1.0" encoding="UTF-8"?>
<svg id="Ebene_2" data-name="Ebene 2" xmlns="http://www.w3.org/2000/svg" viewBox="0 0 361.54 225.98">
  <defs>
    <style>
      .cls-1 {
        fill: #fff;
      }
    </style>
  </defs>
  <g id="Ebene_1-2" data-name="Ebene 1">
    <g id="Ebene_1-3" data-name="Ebene 1">
      <g>
        <g>
          <path class="cls-1" d="M82.99,135.74c0,4.8.26,8.63.79,11.47.53,2.85,1.34,5.11,2.44,6.78,1.1,1.67,2.58,2.97,4.46,3.91,1.87.94,4.8,1.85,8.79,2.75v5.98h-53.59v-5.98c5.04-1.3,8.42-2.75,10.13-4.33s2.83-3.85,3.36-6.78c.53-2.93.79-7.4.79-13.43V30.52c0-5.62-.21-9.7-.61-12.27-.41-2.56-1.08-4.56-2.01-5.98-.94-1.42-2.18-2.56-3.72-3.42-1.55-.85-4.19-1.81-7.94-2.87V0h60.55c19.04,0,33.22,3.64,42.54,10.93,9.32,7.28,13.98,18.37,13.98,33.26,0,8.46-1.46,16.07-4.39,22.83-2.93,6.76-7.08,12.29-12.45,16.6-5.37,4.31-11.72,7.41-19.04,9.28-7.32,1.87-15.02,2.81-23.07,2.81-9.03,0-16.03-.16-21-.49v40.53ZM82.99,85.08h14.16c9.2,0,16.79-1.2,22.77-3.6,5.98-2.4,10.56-6.39,13.73-11.96,3.17-5.57,4.76-12.96,4.76-22.16,0-7-.94-12.84-2.81-17.52-1.87-4.68-4.46-8.44-7.75-11.29-3.29-2.85-7.22-4.86-11.78-6.04-4.56-1.18-9.52-1.77-14.89-1.77-8.06,0-14.12.16-18.19.49v73.85Z"/>
          <path class="cls-1" d="M224.84,75.32h3.66c3.09,0,5.92-.49,8.48-1.46,2.56-.98,5.43-2.81,8.61-5.49s8.01-7.69,14.53-15.01c7.81-8.71,13.14-15.01,15.99-18.92,3.58-4.64,5.98-8.54,7.2-11.72.98-2.36,1.46-4.64,1.46-6.84,0-3.25-.94-5.63-2.81-7.14-1.87-1.5-4.44-2.42-7.69-2.75V0h53.22v5.98c-2.61.57-5.17,1.57-7.69,2.99-2.52,1.42-5.11,3.38-7.75,5.86-2.64,2.48-6.53,6.57-11.66,12.27l-41.02,46.14,44.43,64.58c4.72,6.84,8.42,11.62,11.11,14.34,2.69,2.73,5.25,4.72,7.69,5.98,2.44,1.26,5.04,2.1,7.81,2.5v5.98h-53.83v-5.98c3.01-.24,5.21-.81,6.59-1.71,1.38-.89,2.08-2.24,2.08-4.03,0-1.46-.47-3.23-1.4-5.31-.94-2.08-2.42-4.58-4.46-7.51l-28.44-42.36c-3.34-5.04-5.78-8.38-7.32-10.01-1.55-1.63-3.22-2.83-5-3.6-1.79-.77-4.19-1.16-7.2-1.16h-6.47v51.15c0,5.45.18,9.44.55,11.96.37,2.52.98,4.52,1.83,5.98.86,1.46,2.12,2.69,3.79,3.66,1.67.98,4.37,1.95,8.12,2.93v5.98h-51.39v-5.98c5.04-1.3,8.42-2.75,10.13-4.33s2.83-3.85,3.36-6.78c.53-2.93.79-7.4.79-13.43V30.52c0-5.62-.2-9.7-.61-12.27-.41-2.56-1.08-4.56-2.01-5.98-.94-1.42-2.18-2.56-3.72-3.42-1.55-.85-4.19-1.81-7.93-2.87V0h51.39v5.98c-3.58.9-6.16,1.79-7.75,2.69-1.59.9-2.85,2.01-3.78,3.36-.94,1.34-1.63,3.36-2.08,6.04s-.67,6.84-.67,12.45l-.12,44.8Z"/>
        </g>
        <rect class="cls-1" y="171.38" width="361.54" height="7.4"/>
        <g>
          <path class="cls-1" d="M44.37,209.67c0,.92.05,1.66.15,2.2s.26.98.47,1.3.5.57.86.75.92.36,1.69.53v1.15h-10.29v-1.15c.97-.25,1.62-.53,1.95-.83s.54-.74.64-1.3.15-1.42.15-2.58v-20.27c0-1.08-.04-1.86-.12-2.36s-.21-.88-.39-1.15-.42-.49-.71-.66-.8-.35-1.52-.55v-1.15h11.62c3.66,0,6.38.7,8.17,2.1s2.68,3.53,2.68,6.39c0,1.62-.28,3.09-.84,4.38s-1.36,2.36-2.39,3.19-2.25,1.42-3.66,1.78-2.88.54-4.43.54c-1.73,0-3.08-.03-4.03-.09v7.78ZM44.37,199.94h2.72c1.77,0,3.22-.23,4.37-.69s2.03-1.23,2.64-2.3.91-2.49.91-4.25c0-1.34-.18-2.46-.54-3.36s-.86-1.62-1.49-2.17-1.39-.93-2.26-1.16-1.83-.34-2.86-.34c-1.55,0-2.71.03-3.49.09v14.18Z"/>
          <path class="cls-1" d="M63.38,193.19h6.68v11.93c0,1.83.07,3.22.21,4.17s.35,1.67.63,2.16.68.89,1.2,1.22,1.23.49,2.13.49c.59,0,1.16-.12,1.71-.35s1.16-.64,1.83-1.23,1.15-1.17,1.44-1.75.43-1.25.43-2.02v-8.79c0-.89-.02-1.56-.07-2.02s-.12-.82-.23-1.09-.24-.5-.39-.67-.36-.33-.63-.47-.71-.29-1.32-.45v-1.15h6.68v16.01c0,1.2.02,2.07.07,2.6s.15.95.3,1.27.4.57.73.76.91.38,1.76.55v1.22l-5.37.23h-1.43l.14-3.84-.35-.09c-1.3,1.41-2.54,2.44-3.71,3.09s-2.36.98-3.55.98c-1.42,0-2.59-.28-3.52-.84s-1.61-1.4-2.06-2.52-.68-2.69-.68-4.72v-8.86c0-1.31-.05-2.21-.15-2.71s-.3-.88-.59-1.17-.92-.56-1.89-.81v-1.15Z"/>
          <path class="cls-1" d="M89.05,194.36c.78-.12,1.41-.34,1.9-.66s.86-.71,1.14-1.21.49-1.11.64-1.85.32-1.82.49-3.25h3.33v5.79h7.57v2.37h-7.57v10.43c0,1.52.06,2.72.19,3.62s.36,1.6.7,2.11.73.87,1.17,1.09,1,.33,1.69.33c.62,0,1.21-.13,1.76-.39s1.09-.63,1.62-1.11l1.05,1.27c-1.11,1.08-2.16,1.86-3.15,2.34s-2.02.73-3.08.73c-2.02,0-3.52-.6-4.5-1.79s-1.48-3.07-1.48-5.61v-13.01h-3.47v-1.2Z"/>
          <path class="cls-1" d="M106.13,193.19h6.68v11.93c0,1.83.07,3.22.21,4.17s.35,1.67.63,2.16.68.89,1.2,1.22,1.23.49,2.13.49c.59,0,1.16-.12,1.71-.35s1.16-.64,1.83-1.23,1.15-1.17,1.44-1.75.43-1.25.43-2.02v-8.79c0-.89-.02-1.56-.07-2.02s-.12-.82-.23-1.09-.24-.5-.39-.67-.36-.33-.63-.47-.71-.29-1.32-.45v-1.15h6.68v16.01c0,1.2.02,2.07.07,2.6s.15.95.3,1.27.4.57.73.76.91.38,1.76.55v1.22l-5.37.23h-1.43l.14-3.84-.35-.09c-1.3,1.41-2.54,2.44-3.71,3.09s-2.36.98-3.55.98c-1.42,0-2.59-.28-3.52-.84s-1.61-1.4-2.06-2.52-.68-2.69-.68-4.72v-8.86c0-1.31-.05-2.21-.15-2.71s-.3-.88-.59-1.17-.92-.56-1.89-.81v-1.15Z"/>
          <path class="cls-1" d="M139.55,215.15c0,2.19-.23,3.94-.68,5.25s-1.24,2.43-2.36,3.34-2.68,1.66-4.68,2.24l-.8-2.06c.97-.38,1.71-.73,2.21-1.07s.93-.73,1.25-1.17.58-1.04.75-1.79.26-1.71.26-2.88v-17.41c0-1.22-.02-2.09-.07-2.62s-.15-.95-.3-1.25-.4-.55-.73-.74-.92-.37-1.78-.54v-1.24l5.48-.21h1.43v22.17ZM139.67,184v4.55h-4.29v-4.55h4.29Z"/>
          <path class="cls-1" d="M145.41,193.19h6.68v11.93c0,1.83.07,3.22.21,4.17s.35,1.67.63,2.16.68.89,1.2,1.22,1.23.49,2.13.49c.59,0,1.16-.12,1.71-.35s1.16-.64,1.83-1.23,1.15-1.17,1.44-1.75.43-1.25.43-2.02v-8.79c0-.89-.02-1.56-.07-2.02s-.12-.82-.23-1.09-.24-.5-.39-.67-.36-.33-.63-.47-.71-.29-1.32-.45v-1.15h6.68v16.01c0,1.2.02,2.07.07,2.6s.15.95.3,1.27.4.57.73.76.91.38,1.76.55v1.22l-5.37.23h-1.43l.14-3.84-.35-.09c-1.3,1.41-2.54,2.44-3.71,3.09s-2.36.98-3.55.98c-1.42,0-2.59-.28-3.52-.84s-1.61-1.4-2.06-2.52-.68-2.69-.68-4.72v-8.86c0-1.31-.05-2.21-.15-2.71s-.3-.88-.59-1.17-.92-.56-1.89-.81v-1.15Z"/>
          <path class="cls-1" d="M189.94,193.73v4.9h-2.98c-.27-1.02-.59-1.82-.98-2.4s-.84-1-1.36-1.23-1.16-.35-1.92-.35c-1.09,0-2.06.35-2.91,1.05s-1.51,1.77-2,3.21-.74,3.2-.74,5.27c0,1.33.09,2.54.28,3.64s.51,2.04.96,2.82,1.05,1.39,1.8,1.83,1.68.66,2.79.66,2.08-.21,3.01-.63,1.89-1.16,2.89-2.23l1.34,1.55c-.8.88-1.5,1.55-2.11,2.03s-1.26.88-1.96,1.2-1.38.55-2.06.7-1.42.22-2.21.22c-2.95,0-5.21-.98-6.77-2.94s-2.34-4.79-2.34-8.5c0-2.31.44-4.36,1.31-6.15s2.1-3.17,3.68-4.14,3.4-1.45,5.46-1.45c1.28,0,2.46.07,3.55.22s2.18.39,3.27.71ZM187.95,181.8v1.17l-7.43,7.55-1.52-1.22,4.85-7.5h4.1Z"/>
          <path class="cls-1" d="M193.65,214.45c.61-.19,1.04-.35,1.3-.49s.48-.34.66-.59.32-.63.42-1.15.15-1.32.15-2.41v-10.22c0-1-.02-1.8-.05-2.41s-.14-1.1-.33-1.46-.47-.64-.86-.82-.93-.33-1.63-.46v-1.24l5.46-.21h1.43v16.76c0,1.34.06,2.28.19,2.8s.36.92.71,1.2.93.51,1.72.71v1.15h-9.19v-1.15ZM200.35,184v4.55h-4.31v-4.55h4.31Z"/>
          <path class="cls-1" d="M225.22,198.07h.7c.59,0,1.14-.09,1.63-.28s1.04-.54,1.65-1.05,1.54-1.48,2.79-2.88c1.5-1.67,2.52-2.88,3.07-3.63.69-.89,1.15-1.64,1.38-2.25.19-.45.28-.89.28-1.31,0-.62-.18-1.08-.54-1.37s-.85-.46-1.48-.53v-1.15h10.22v1.15c-.5.11-.99.3-1.48.57s-.98.65-1.49,1.12-1.25,1.26-2.24,2.36l-7.88,8.86,8.53,12.4c.91,1.31,1.62,2.23,2.13,2.75s1.01.91,1.48,1.15.97.4,1.5.48v1.15h-10.34v-1.15c.58-.05,1-.16,1.27-.33s.4-.43.4-.77c0-.28-.09-.62-.27-1.02s-.46-.88-.86-1.44l-5.46-8.13c-.64-.97-1.11-1.61-1.41-1.92s-.62-.54-.96-.69-.8-.22-1.38-.22h-1.24v9.82c0,1.05.04,1.81.11,2.3s.19.87.35,1.15.41.52.73.7.84.38,1.56.56v1.15h-9.87v-1.15c.97-.25,1.62-.53,1.95-.83s.54-.74.64-1.3.15-1.42.15-2.58v-20.27c0-1.08-.04-1.86-.12-2.36s-.21-.88-.39-1.15-.42-.49-.71-.66-.8-.35-1.52-.55v-1.15h9.87v1.15c-.69.17-1.18.34-1.49.52s-.55.39-.73.64-.31.64-.4,1.16-.13,1.31-.13,2.39l-.02,8.6Z"/>
          <path class="cls-1" d="M256.91,215.97c-3.25,0-5.73-.96-7.44-2.87s-2.57-4.75-2.57-8.5c0-2.58.45-4.76,1.35-6.54s2.13-3.11,3.69-3.97,3.34-1.3,5.34-1.3c3.34,0,5.88.97,7.59,2.92s2.58,4.74,2.58,8.38c0,2.59-.43,4.78-1.29,6.56s-2.08,3.11-3.66,4-3.45,1.32-5.6,1.32ZM251.33,204.11c0,3.22.51,5.69,1.54,7.42s2.49,2.59,4.39,2.59c1.05,0,1.94-.25,2.67-.76s1.33-1.19,1.79-2.05.79-1.86,1-2.99.3-2.32.3-3.55c0-2.3-.25-4.2-.76-5.72s-1.2-2.63-2.07-3.34-1.88-1.07-3-1.07c-1.89,0-3.34.82-4.35,2.46s-1.51,3.98-1.51,7.01Z"/>
          <path class="cls-1" d="M284.23,195.56h-5.6v14.18c0,1.05.05,1.84.15,2.37s.25.93.45,1.21.45.49.77.66.83.32,1.54.48v1.15h-9.59v-1.15c.69-.19,1.18-.37,1.48-.54s.53-.39.69-.66.29-.65.36-1.15.12-1.29.12-2.37v-14.18h-2.84v-1.2c.59-.09.99-.17,1.18-.22s.38-.14.56-.25.34-.27.47-.47.25-.5.35-.9.18-.96.25-1.68c.14-1.7.45-3.09.93-4.15s1.17-1.97,2.09-2.72,1.89-1.28,2.93-1.58,2.26-.46,3.67-.46c1.23,0,2.28.09,3.14.26v4.24h-2.32c-.3-.92-.64-1.57-1.04-1.96s-.96-.57-1.68-.57c-.52,0-.95.07-1.3.21s-.68.36-.97.66-.55.7-.76,1.2-.37,1.12-.47,1.86-.15,1.71-.15,2.89v2.46h5.6v2.37Z"/>
          <path class="cls-1" d="M304.86,211.61c-1,1.05-1.92,1.87-2.75,2.46s-1.75,1.06-2.75,1.39-2.1.5-3.3.5c-3.22,0-5.65-.96-7.29-2.89s-2.46-4.78-2.46-8.54c0-2.33.42-4.38,1.25-6.16s2.03-3.16,3.57-4.12,3.33-1.45,5.34-1.45c1.58,0,2.92.25,4.03.75s2,1.18,2.66,2.05,1.18,1.96,1.55,3.28.57,3.04.62,5.17h-14.77v.42c0,1.84.21,3.39.62,4.65s1.09,2.24,2.04,2.95,2.18,1.07,3.69,1.07c1.28,0,2.43-.24,3.46-.71s2.04-1.25,3.06-2.33l1.43,1.52ZM300.92,202.1c-.09-1.69-.3-3.07-.63-4.14s-.82-1.89-1.48-2.46-1.52-.86-2.58-.86c-1.61,0-2.89.64-3.86,1.93s-1.53,3.13-1.7,5.52h10.24Z"/>
          <path class="cls-1" d="M315.87,197.08l.33.07c.86-1.05,1.66-1.87,2.39-2.47s1.53-1.07,2.38-1.39,1.82-.49,2.89-.49c.91,0,1.73.05,2.46.14v5.39h-2.65c-.38-.84-.77-1.46-1.2-1.84s-1-.57-1.73-.57c-.56,0-1.12.16-1.68.49s-1.09.8-1.61,1.43-.87,1.21-1.07,1.76-.29,1.2-.29,1.95v8.2c0,1.42.09,2.4.26,2.94s.46.93.86,1.18,1,.45,1.79.59v1.15h-9.45v-1.15c.59-.19,1.02-.35,1.28-.49s.48-.34.67-.59.33-.63.42-1.15.14-1.32.14-2.41v-10.22c0-1-.02-1.8-.05-2.41s-.14-1.1-.33-1.46-.47-.64-.86-.82-.93-.33-1.63-.46v-1.22l5.48-.23h1.43l-.26,4.1Z"/>
        </g>
      </g>
    </g>
  </g>
</svg>