<?xml version="1.0" encoding="UTF-8"?>
<svg id="Ebene_2" xmlns="http://www.w3.org/2000/svg" xmlns:xlink="http://www.w3.org/1999/xlink" viewBox="0 0 287.64 392.66">
  <defs>
    <style>
      .cls-1 {
        fill: #fff;
      }

      .cls-2, .cls-3 {
        fill: none;
      }

      .cls-4 {
        fill: #594c46;
      }

      .cls-3 {
        stroke: #594c46;
        stroke-miterlimit: 10;
      }

      .cls-5 {
        fill: #9b8477;
      }

      .cls-6 {
        isolation: isolate;
        opacity: .94;
      }

      .cls-7 {
        clip-path: url(#clippath);
      }
    </style>
    <clipPath id="clippath">
      <path class="cls-2" d="M163.19,225.95c-.74-.25-1.62-.15-2.09-.06-1.1.22-2.2,1.07-3.42,2.31-.98,1-1.47,1.49-2.28,2.73-2.63,4.05-8.89,5.03-11.95,7-3.6,2.32-7.68.19-10.33.11-.17,0-.34-.02-.51-.02s-.34.02-.51.02c-2.65.07-6.73,2.21-10.33-.11-3.06-1.97-9.31-2.96-11.95-7-.81-1.24-1.3-1.74-2.28-2.73-1.23-1.24-2.32-2.09-3.42-2.31-.47-.09-1.34-.19-2.09.06-.96.33-1.43.72-1.57.92-.12.16,1.06.57,2.34,1.22,2.45,1.25,4.39,3.62,5.49,5.29,1.26,1.93.88,1.53,2.21,4.68.95,2.24,2.34,3.92,4.26,4.68.84.33,4.54,2.83,5.15,3.56.65.78,1.72,2.5,2.43,4.67.31.95,1.49,3.39,3.6,5.62.46.49,4.57,2.79,6.67,3.08,2.1-.29,6.21-2.59,6.67-3.08,2.11-2.23,3.29-4.68,3.6-5.62.71-2.18,1.78-3.89,2.43-4.67.6-.72,4.31-3.22,5.15-3.56,1.92-.76,3.31-2.44,4.26-4.68,1.33-3.15.95-2.76,2.21-4.68,1.1-1.67,3.04-4.04,5.49-5.29,1.28-.65,2.46-1.06,2.34-1.22-.14-.2-.61-.59-1.57-.92h0Z"/>
    </clipPath>
  </defs>
  <g id="Ebene_2-2" data-name="Ebene_2">
    <g id="Ebene_1-2">
      <g>
        <g>
          <g>
            <path class="cls-1" d="M184,156.81c-2.12-2.22.78-5.64-1.23-10.57-1.69-4.16-4.79-7.02-7.97-11.3-.67-.9-.68-1.62-.09-2.38.67-.86,4.06-.36,4.74-.22,3.99.83,3.79,2.02,4.98,4.34.56,1.09.99,1.97,2.81,4.91,1.21,1.95.99,2.1,2.11,2.37,1.03.25,2.03-.16,2.81-.68,1.46-.97,3.12-2.74,3.49-3.23,3.06-4.13,3.32-4.6,6.55-9.28,3.45-5,4.35-6.03,6.19-7.81,1.3-1.26,2.6-1.62,3.64-.94.74.49.57,2.51-.36,4.06-.98,1.64-3.22,5.11-5.09,7.85-1.11,1.64-2.35,3.71-2.62,4.79-.22.91-.03,1.55.31,1.92.23.26,1.07.22,1.46.06,1.06-.43,2.1-1.31,2.78-1.91,1.53-1.36,2.28-2.18,6.22-6.13,2.84-2.84,4.77-4.58,6.2-5.81.97-.83,2.79-1.58,3.83-.43,1.22,1.36.27,2.91-.98,4.36-1.72,2-2.33,2.45-4.69,4.72-2.67,2.57-3.26,3.6-4.68,5-1.21,1.19-2.08,2.16-2.78,3.16-.23.32-.83,1.38-.51,1.9s1.38.5,2.07.2c1.35-.59,3.86-2.08,4.52-2.51.52-.35,2.45-1.92,6.28-5.1,2.05-1.7,2.93-2.39,4.33-2.89,2.09-.76,2.23-.51,2.89.34.79,1-1.01,3.33-1.74,4.09-1.62,1.7-3.41,3.31-5.7,5.06-5.2,3.98-6.09,4.24-7.25,5.41-.84.84-1.18,1.28-.94,1.83.18.42.65.38,1.57.1,1.91-.59,2.48-.87,4.93-1.84,2.3-.91,2.51-1.05,4-1.7,1.74-.75,1.01-.49,1.93-.82.83-.29,2.46-.62,2.94.13.57.89.38,1.69-.83,2.65-.58.46-1.34,1.12-2.9,1.82-2.5,1.12-1.83.87-3.83,1.72-1.73.74-2.92,1.58-7.46,3.78-1.18.57-3.42,2.43-7.94,5.73-2.66,1.94-4.72,3.19-7.06,4.38-1.3.66-2.83.98-4.26,1.87-1.31.83-1.18,1.06-1.93,1.35-1.48.58-4.06-.73-5.12-3.08-.81-1.79-.36-.64-1.47-3.83-.5-1.44-1.06-3-1.44-3.57-1.04-1.6-1.95-3.1-2.72-3.9v.03Z"/>
            <path d="M193.95,172.34c-1.95,0-4.22-1.56-5.24-3.8l-.32-.7c-.29-.63-.3-.67-.62-1.59l-.56-1.62c-.29-.84-.98-2.82-1.33-3.36l-.47-.72c-.8-1.24-1.55-2.42-2.14-3.03h0c-1.36-1.43-1.16-3.15-.94-4.97.2-1.71.44-3.64-.49-5.92-1.12-2.75-2.9-4.93-4.97-7.45-.93-1.13-1.89-2.3-2.87-3.62-.93-1.25-.95-2.46-.07-3.59,1.15-1.49,5.27-.68,5.73-.58,3.63.76,4.3,1.89,5.17,3.82.14.32.3.66.49,1.04l.12.23c.5.98.98,1.91,2.65,4.62.29.47.5.84.67,1.14.26.45.53.71.82.78.73.18,1.5-.2,2.02-.54,1.38-.92,2.95-2.61,3.24-3,2.37-3.19,3.06-4.2,4.75-6.65l1.79-2.6c3.41-4.94,4.36-6.07,6.31-7.96,1.67-1.61,3.45-2,4.88-1.05,1.37.9,1.08,3.52-.05,5.41-1.02,1.72-3.32,5.26-5.12,7.9-1.31,1.93-2.28,3.68-2.48,4.47-.09.35-.09.66,0,.87.16,0,.34-.02.42-.05,1-.41,2.08-1.37,2.49-1.74,1.08-.96,1.74-1.63,3.52-3.41.69-.7,1.55-1.56,2.67-2.67,2.38-2.38,4.36-4.24,6.25-5.86,1.55-1.33,3.84-1.87,5.23-.34,2,2.23-.15,4.74-.96,5.68-1.34,1.56-2.04,2.22-3.31,3.42-.41.38-.87.82-1.44,1.37-1.55,1.49-2.37,2.44-3.1,3.28-.5.57-.96,1.12-1.57,1.71-1.22,1.2-2.02,2.11-2.66,3.02-.15.22-.3.52-.38.74.2,0,.48-.02.72-.13,1.29-.56,3.78-2.04,4.37-2.43.58-.38,3.45-2.76,6.19-5.03,2-1.66,3.03-2.49,4.63-3.06,2.22-.8,2.96-.69,3.98.61,1.51,1.92-1.42,5.1-1.76,5.46-1.71,1.8-3.56,3.44-5.82,5.17-2.62,2-4.15,3.07-5.17,3.78-1,.7-1.46,1.02-1.98,1.54-.08.08-.15.15-.21.21,1.35-.42,1.99-.68,3.33-1.22l1.35-.54c1.61-.64,2.18-.89,2.9-1.21.3-.14.64-.28,1.08-.47.75-.32,1.03-.46,1.18-.53q.23-.11.81-.31c.52-.18,3.14-1.01,4.12.53.88,1.39.53,2.72-1.05,3.97l-.16.13c-.6.48-1.42,1.13-2.95,1.82-1.12.5-1.6.72-1.97.9-.46.22-.76.36-1.88.83-.78.34-1.44.69-2.45,1.23-1.09.58-2.57,1.38-4.97,2.54-.66.32-1.86,1.23-3.68,2.59-1.1.83-2.45,1.84-4.1,3.04-2.59,1.89-4.67,3.18-7.2,4.47-.58.3-1.2.53-1.8.75-.8.3-1.63.61-2.38,1.08-.57.36-.82.58-1.03.76-.27.24-.52.46-1.07.68-.36.14-.75.21-1.16.21v-.05ZM176.66,133.07c-.56,0-1.02.05-1.21.17-.19.27-.31.48.16,1.11.95,1.28,1.9,2.43,2.81,3.55,2.08,2.54,4.05,4.94,5.28,7.97,1.12,2.76.84,5.06.62,6.91-.2,1.71-.28,2.64.4,3.35h0c.72.75,1.49,1.95,2.37,3.33l.46.72c.4.62.89,1.91,1.54,3.79l.56,1.63c.2.57.38,1.04.54,1.4l.33.71c.89,1.97,2.95,2.91,3.85,2.56.22-.09.27-.13.47-.31.24-.22.58-.51,1.29-.96.92-.58,1.89-.94,2.75-1.26.57-.21,1.11-.41,1.59-.66,2.42-1.23,4.43-2.48,6.93-4.3,1.64-1.2,2.98-2.2,4.08-3.03,1.98-1.49,3.18-2.39,4.01-2.79,2.36-1.15,3.83-1.93,4.9-2.5,1.01-.54,1.74-.93,2.6-1.3,1.08-.46,1.37-.6,1.82-.81.38-.18.86-.4,2-.91,1.3-.58,1.98-1.12,2.52-1.55l.17-.14c.97-.76.8-1.02.61-1.33-.13-.04-.93,0-1.76.28q-.45.16-.63.24c-.16.08-.46.22-1.24.56-.43.19-.76.33-1.06.47-.74.33-1.33.59-2.98,1.24l-1.34.54c-1.41.57-2.12.85-3.66,1.33-.66.2-2.21.68-2.78-.67-.53-1.24.41-2.18,1.16-2.93.65-.65,1.22-1.04,2.25-1.77,1-.7,2.52-1.76,5.1-3.73,2.18-1.67,3.95-3.24,5.58-4.96.99-1.05,1.75-2.45,1.65-2.83-.14-.16-.28-.35-.34-.39-.03,0-.33.02-1.41.41-1.23.44-1.99,1.03-4.03,2.72-4.09,3.4-5.82,4.8-6.37,5.16-.73.48-3.27,1.98-4.67,2.59-.97.42-2.65.52-3.33-.6-.69-1.13.33-2.69.54-3,.71-1.02,1.58-2.01,2.9-3.3.55-.54.97-1.03,1.46-1.59.72-.83,1.61-1.86,3.23-3.41.57-.55,1.05-1,1.45-1.38,1.27-1.19,1.9-1.79,3.17-3.27,1.68-1.95,1.39-2.59.99-3.04-.56-.63-1.86.03-2.43.52-1.85,1.59-3.8,3.42-6.14,5.76-1.11,1.11-1.97,1.97-2.66,2.67-1.76,1.77-2.48,2.5-3.61,3.5-.81.72-1.9,1.62-3.06,2.09-.59.24-1.95.4-2.58-.31-.36-.4-.91-1.3-.53-2.83.37-1.49,2.06-4.07,2.77-5.12,1.78-2.61,4.04-6.11,5.05-7.8.74-1.24.76-2.53.6-2.78-.73-.46-1.78.35-2.33.88-1.74,1.69-2.6,2.65-6.06,7.66l-1.78,2.59c-1.7,2.47-2.4,3.49-4.79,6.71-.4.53-2.15,2.41-3.74,3.47-1.22.81-2.47,1.09-3.6.82-1.21-.29-1.49-.68-2.09-1.74-.16-.28-.36-.63-.63-1.08-1.72-2.78-2.21-3.74-2.73-4.76l-.12-.23c-.21-.41-.38-.79-.54-1.13-.67-1.48-.94-2.1-3.76-2.68-.7-.15-1.76-.25-2.6-.25l.03.02Z"/>
          </g>
          <rect x="180.83" y="152.47" width="9.7" height="26.1" rx="3.2" ry="3.2" transform="translate(-62.64 150.96) rotate(-38.36)"/>
          <path d="M197.2,157.19c-.06,0-.12-.01-.18-.03-.26-.1-.38-.39-.28-.65l3.2-8.14c.1-.26.39-.38.65-.28.26.1.38.39.28.65l-3.2,8.14c-.08.2-.27.32-.47.32h0Z"/>
          <path d="M199.4,158.88c-.19,0-.38-.11-.46-.3-.11-.25,0-.55.26-.66l7.71-3.38c.25-.11.55,0,.66.26.11.25,0,.55-.26.66l-7.71,3.38c-.06.03-.13.04-.2.04h0Z"/>
          <path d="M199.66,156.49c-.13,0-.27-.05-.36-.16-.19-.2-.18-.52.02-.71l3.6-3.37c.2-.19.52-.18.71.02s.18.52-.02.71l-3.6,3.37c-.1.09-.22.14-.34.14h-.01Z"/>
        </g>
        <g>
          <path class="cls-5" d="M121.27,285.26c-36.59-17.37-71.26-38.35-103.81-63.49-3.48-2.69-9.32-8.94-12.32-13.81-1.53-2.49-2.2-6.41-2.35-7.77-3.19-29.79-3.14-60.94.82-90.41,1-7.4,6.41-9.37,11.35-6.27,28.55,17.92,85.64,53.77,114.18,71.7,2.16,1.36,3.47,3.73,3.47,6.27v97.51c0,5.4-4.96,9.31-11.35,6.27h.01Z"/>
          <path class="cls-5" d="M136.5,174.7c8.53-3.71,25.6-11.12,34.13-14.83,3.88-1.69,7.39,1.73,8.01,6.54,3.44,26.57,3.17,76.5,0,100.12-.39,2.89-1.92,4.74-3.88,6.54-7.98,7.35-25.1,14.43-34.13,14.83-4.14.18-8.01-1.68-8.01-6.54v-100.12c0-2.92,1.55-5.53,3.88-6.54Z"/>
          <path class="cls-5" d="M12.62,102.39c27.8,17.37,87.2,54.63,115,72,2.05,1.28,6.75.9,9,0,6.89-2.75,25.11-11.25,32-14,3.72-1.49,2.09-5.46-1-8-23.37-19.24-79.61-54.87-111-70-2.29-1.1-7.62-1.89-10-1-8,3-26.42,9.59-34,13-2.54,1.14-2.37,6.52,0,8h0Z"/>
        </g>
        <g>
          <path class="cls-4" d="M125.61,286.83c-1.45,0-2.99-.37-4.55-1.11-35.16-16.68-68.26-36.67-98.64-59.54-3.69-2.78-6.8-5.38-10.22-8.47-.87-.79-1.98-1.82-3.37-3.12-1.12-1.05-2.09-2.4-3.09-3.28-.38-.34-1.16-1.23-1.44-1.8-.52-1.05-.52-1.72-.79-2.69-.55-2.03-.64-2.39-.77-3.05-.07-.39-.15-.77-.18-1.05-3.58-31.59-3.4-63.64.55-93,.5-3.69,2.12-6.36,4.58-7.51,2.23-1.05,4.98-.73,7.53.88l114.18,71.7c2.32,1.46,3.7,3.96,3.7,6.7v97.51c0,2.82-1.3,5.32-3.48,6.7-1.2.76-2.57,1.14-4.03,1.14h.02ZM10.48,102.61c-.83,0-1.63.17-2.36.51-2.14,1-3.53,3.4-4.01,6.74-2.07,14.37-2.69,78.78,1,92.03.72,2.6,8.21,8.55,10,10,34.49,27.98,65,46,104,66,2.78,1.43,10.25,4.75,12,3,1-1,1-4.53,1-7v-91.11s-.04-1.15-.08-1.47c-.34-2.86-.78-4.02-3.16-5.67-.56-.39-2.24-1.41-2.24-1.41L14.69,103.94c-1.4-.88-2.85-1.33-4.21-1.33h0Z"/>
          <path class="cls-4" d="M140.07,288.42c-2.48,0-4.6-.73-6.01-2.08-1.29-1.23-1.94-2.91-1.94-4.98v-100.12c0-3.1,1.68-5.91,4.18-7l34.13-14.83c1.63-.71,3.28-.63,4.76.21,2.07,1.18,3.55,3.69,3.94,6.72,3.33,25.72,3.33,75.38,0,100.25-.4,2.96-1.9,4.88-4.04,6.84-7.74,7.12-24.8,14.54-34.45,14.96-.19,0-.39.01-.58.01v.02ZM136.25,175.57c-2.16,1.47-2.64,2.6-3.06,5.6-.06.4-.08,1.06-.08,1.06v96.54c0,1.17.98,2.7,1.55,3.06.96.61,3.9,1.23,6.35.93,8-1,23.05-6.77,31.76-14.04,1.46-1.22,4.79-4.02,5.17-6.77,2.99-21.42,2.36-79.09.2-95.48-.35-2.68-1.67-4.98-3.44-5.98-1.21-.68-2.55-.74-3.87-.16l-31.84,13.84s-1.83.79-2.73,1.41h-.01Z"/>
          <path class="cls-4" d="M132.48,178.78c-.53,0-1.32-2.19-1.88-2.48-1.46-.79-2.93-1.78-3.63-2.22-13.9-8.69-35.16-21.88-56.96-35.54-21.8-13.66-43.54-27.6-57.44-36.29-1.6-1-2.42-2.73-2.29-4.56.12-1.81.92-3.21,2.12-3.75,5.84-2.63,18.1-7.14,27.05-10.43,2.71-1,5.13-1.89,6.98-2.58,2.66-1,8.14-.07,10.39,1.02,31.06,14.97,87.12,50.33,111.1,70.06,2.28,1.88,3.57,4.29,3.29,6.13-.13.85-.66,2.02-2.42,2.72-3.43,1.37-9.81,4.23-15.98,6.99-6.18,2.77-12.57,5.63-16.02,7.01-.75.3-1.24.65-2.43,1.27-.58.31-1.12,2.65-1.89,2.65h.01ZM49.42,81.5c-1.04,0-1.97.11-2.63.35-1.86.7-4.27,1.59-6.99,2.58-8.94,3.29-21.18,7.79-26.98,10.4-.86.39-1.44,1.48-1.53,2.91-.12,1.82.21,2.39,1.85,3.85l1.53,1c13.9,8.69,33.91,21.7,55.71,35.36,21.8,13.66,55.69,34.37,58.29,34.99,2.37.56,5.91.78,7.77.25,2.95-.84,9.8-3.51,15.97-6.27,6.18-2.77,12.57-5.63,16.02-7.01,1.06-.42,1.67-1.08,1.8-1.94.23-1.48-.95-3.57-2.93-5.21-23.93-19.7-79.9-54.99-110.9-69.94-1.59-.77-4.58-1.33-6.98-1.33h0Z"/>
          <path class="cls-4" d="M168.56,152.91l2.43,4-1.11,2.85,4.72-.13,3.23,3.23s-1.95-4.51-3.48-6.15c-1.77-1.89-5.8-3.81-5.8-3.81h0Z"/>
          <path class="cls-4" d="M3.98,106.75l4.09-4.34,4.31-.13-2.18-4.01,2.57-4.42s-5.37,3.07-6.49,4.8c-1.41,2.18-2.3,8.11-2.3,8.11h0Z"/>
          <path class="cls-4" d="M143.2,287.65l-8.62-2.57-2.47-3.89-4.06,3.13-7.87.53s9.19,4.83,11.23,5c2.59.21,11.79-2.19,11.79-2.19h0Z"/>
          <path class="cls-4" d="M36.62,231.89l-7.5-4.88c-2.3-37.44-2.33-68-.12-109.47.03-.58.44-2.87,1.27-4.25s1.1-1.43,5.98-3.26c12.93-4.84,42.66-16.1,42.66-16.1,0,0,1.63-.14,2.13.02,2.04.64,4.09,2.13,4.41,2.89.09.22-.47.72-.47.72,0,0-32.36,12.98-44.01,17.62-2.66,1.06-3.38,1.43-3.86,2.22-.42.71-.57,2.78-.6,3.17-2.51,37.83-2.13,72.87.11,111.31h0Z"/>
          <path class="cls-4" d="M92.32,266.69l-7.5-4.88c-2.3-37.44-2.33-68-.12-109.47.03-.58.44-2.87,1.27-4.25.85-1.4,1.28-1.45,5.97-3.35,12.8-5.21,41.76-17,41.76-17,0,0,1.17-.38,2.12-.02,1.47.55,3.76,2.3,4.16,3.35.1.26-.66.61-.66.61,0,0-31.19,13.4-42.54,18.28-3.08,1.25-3.51,1.46-3.98,2.26-.42.71-.57,2.78-.6,3.17-2.51,37.83-2.13,72.87.11,111.31h.01Z"/>
          <path class="cls-4" d="M162.39,278.02l-8.26,3.96s2.3-4.75,2.74-6.78c.3-1.39.25-3.56.25-3.56v-99.66s-.58-3.34-1.84-5.6c-1.11-1.98-3.11-3.51-3.11-3.51L33.82,88.66s-1.11-.64-1.41-.76c-.59-.25-2.19-.56-2.19-.56l3.44-1.33s-.16.5.42,1.34c.18.26.95.9.95.9l119.01,74.63s2.43,1.59,3.02,2.64c.78,1.42,1.05,6.38,1.05,6.38v99.62s.22,2.41.48,3.02c.93,2.17,3.79,3.49,3.79,3.49h.01Z"/>
        </g>
        <g>
          <g>
            <path d="M60.71,111.27c-.32,0-.64-.09-.92-.27l-10.65-6.88c-.57-.37-.87-1.01-.78-1.69.09-.68.55-1.22,1.2-1.42l8.96-3.35c.55-.17,1.07-.1,1.5.18l10.87,6.72c.57.37.87,1,.79,1.66s-.51,1.2-1.14,1.43l-9.24,3.51c-.2.07-.4.11-.61.11h.02ZM50.68,102.74l10.07,6.51,8.61-3.27-10.3-6.37-8.38,3.14h0Z"/>
            <path d="M59.42,105.52c-.42.02-.81-.23-.97-.64-.2-.51.05-1.09.57-1.29l11.78-4.58c.51-.2,1.09.05,1.29.57.2.51-.05,1.09-.57,1.29l-11.78,4.58c-.11.04-.21.06-.32.07h0Z"/>
            <circle cx="49.16" cy="108.62" r="1.55"/>
            <circle cx="59.22" cy="104.55" r="1.55"/>
          </g>
          <g>
            <path d="M115.49,145.96c-.33,0-.63-.09-.91-.26l-10.65-6.88c-.57-.37-.87-1.01-.78-1.69.09-.68.55-1.22,1.2-1.42l9-3.68c.57-.18,1.1-.11,1.53.17l10.57,6.61c.57.37.87,1,.79,1.66s-.51,1.2-1.14,1.43l-8.96,3.94c-.23.08-.45.12-.67.12h.02ZM105.46,137.42l10.08,6.51,8.42-3.7-10.03-6.27-8.46,3.46h-.01Z"/>
            <path d="M114.64,139.81c-.41.03-.82-.21-.99-.61-.21-.51.03-1.1.54-1.31l11.66-4.88c.51-.21,1.1.03,1.31.54s-.03,1.1-.54,1.31l-11.66,4.88c-.1.04-.21.07-.32.08h0Z"/>
            <circle cx="114.16" cy="139.07" r="1.55"/>
            <circle cx="104.14" cy="143.27" r="1.55"/>
          </g>
          <g>
            <g>
              <path d="M87.8,113.58c-3.29,1.44-13.39,4.8-17.99,6.31-1.09.36-1.86-.18-2.88-.71-1.45-.76-4.63-2.65-6.02-3.5-2.2-1.37-.48-2.13,1.54-2.91,4.06-1.58,12.94-4.93,16.47-6.06,1.09-.35,1.79.31,2.82.82,1.34.67,4.82,3.26,5.61,3.78,1.08.72,1.51,1.81.46,2.27h0Z"/>
              <path d="M69.14,120.51c-.78,0-1.44-.34-2.12-.71l-.33-.18c-1.4-.74-4.59-2.62-6.05-3.52-.58-.36-1.33-.92-1.26-1.7.09-.94,1.25-1.46,2.88-2.1,3.82-1.49,12.87-4.91,16.5-6.07,1.07-.34,1.85.1,2.61.53.19.11.38.22.59.32,1.04.52,3.22,2.07,4.65,3.1.45.32.81.58,1.01.71.86.58,1.34,1.33,1.27,2.02-.03.29-.18.81-.9,1.13h0c-3.18,1.4-12.67,4.57-18.04,6.33-.29.1-.56.14-.82.14h.01ZM79.5,107.1c-.14,0-.28.03-.43.07-3.61,1.15-12.63,4.56-16.44,6.05-.66.26-2.21.86-2.25,1.26,0,0,0,.26.79.76,1.45.9,4.6,2.76,5.99,3.49l.34.18c.81.44,1.39.75,2.15.5,5.35-1.76,14.8-4.92,17.95-6.3h0c.29-.13.3-.26.3-.3.02-.25-.26-.71-.84-1.1-.2-.13-.57-.4-1.03-.73-1.33-.95-3.55-2.54-4.52-3.02-.22-.11-.43-.23-.64-.34-.57-.32-.96-.53-1.38-.52h.01Z"/>
            </g>
            <g>
              <path d="M113.95,129.95c-3.36,1.28-11.7,4.87-17.05,6.9-1.07.41-1.34.1-3.39-.86-1.5-.7-4.41-2.96-5.78-3.71-1.04-.57-.36-1.42,1.09-2.06,4.09-1.8,12.31-5,15.85-6.11,1.09-.34,1.45-.59,3.16.21s4.28,2.18,5.96,3.2c1.46.88,2.9,1.4.16,2.44h0Z"/>
              <path d="M96.26,137.52c-.62.05-1.14-.2-2.09-.66-.25-.12-.53-.3-.88-.48-.52-.27-4.31-2.63-5.8-3.66-.61-.42-.77-.81-.76-1.13.04-.84,1.05-1.46,1.89-1.83,3.89-1.71,12.22-4.98,15.9-6.13l.27-.09c1.02-.33,1.59-.46,3.25.32,1.68.79,4.27,2.17,6.01,3.22.15.09.31.18.45.27.83.48,1.55.9,1.49,1.59-.05.57-.59,1-1.87,1.48-1.47.56-3.85,1.54-6.62,2.69-3.48,1.44-7.43,3.07-10.43,4.21-.31.12-.57.18-.82.2h0ZM105.93,124.28c-.26.02-.5.1-.83.2l-.28.09c-3.41,1.07-11.51,4.21-15.8,6.09-.97.42-1.29.83-1.29.96,0,0,.04.1.24.21,1.54.84,5.23,3.45,5.75,3.7.34.16.63.3.88.42,1.26.61,1.42.69,2.12.43,2.99-1.14,6.93-2.76,10.41-4.2,2.77-1.15,5.16-2.13,6.64-2.7h0c1.08-.41,1.22-.64,1.24-.67-.07-.07-.64-.39-1.01-.61-.15-.09-.31-.18-.47-.27-1.71-1.03-4.26-2.4-5.91-3.17-.84-.39-1.29-.51-1.69-.48Z"/>
            </g>
            <g>
              <path class="cls-4" d="M72.18,115.78l-.17-7.18s4.78-1.23,6.11-1.06c.29.04,2.64,1.6,3.18,1.95,3.39,2.17,15.12,9.38,15.89,10.5.83,1.2.8,1.95.82,2.64.04,1.64.17,8.23.17,8.23l6.61-2.09s.06-6.07-.05-8.43c-.05-1.01-.92-2.98-1.51-3.8-2.68-3.76-17.71-13.24-21.25-13.74-2.5-.35-5.5,1.17-6.7,2.07-2.26,1.71-3.33,3.06-3.29,3.27.17.92,5.89-1.3,6.21-.32.08.26.04,6.52.04,6.52l-6.07,1.45h0Z"/>
              <path d="M105.29,129.25l-7.6,2.09v-.49s-.14-6.59-.18-8.23v-.13c-.02-.64-.03-1.24-.73-2.24-.56-.81-8.93-6.07-12.95-8.59-1.16-.73-2.14-1.35-2.81-1.77l-.45-.29c-.4-.26-1.22-.79-1.83-1.17.04.9-.07,1.41,0,5.89v.51l-7.05,1.45-.19-8.07h0c-.16-.99,3.44-3.72,3.48-3.75,1.37-1.03,4.5-2.54,7.07-2.17,3.51.5,18.77,10,21.58,13.94.6.84,1.55,2.9,1.6,4.07.11,2.34.05,8.12.05,8.45v.5h.01ZM98.67,130.34l5.62-2.09c0-1.81.04-5.93-.05-7.91-.04-.85-.83-2.71-1.42-3.53-2.64-3.7-17.61-13.07-20.91-13.53-2.36-.33-5.28,1.19-6.33,1.98-1.52,1.14-2.43,2.08-2.85,2.59.12,0,.25-.02.4-.05,1.55-.36,4.07-.9,5.05-.77.25.03.72.28,2.94,1.73l.44.29c.66.42,1.64,1.04,2.8,1.77,7.95,5,12.67,8.05,13.24,8.87.87,1.25.89,2.1.9,2.79v.12c.04,1.37.14,6.19.17,7.75h0ZM72.67,115.28l5.07-1.46c-.05-2.64.04-4.91,0-5.77-.46-.08-1.83.22-2.67.4-.68.14-1.25.26-1.72.33-.3.07-.58.14-.82.2l.15,6.3h0Z"/>
            </g>
          </g>
        </g>
        <g>
          <g>
            <g>
              <path class="cls-1" d="M163.19,225.95c-.74-.25-1.62-.15-2.09-.06-1.1.22-2.2,1.07-3.42,2.31-.98,1-1.47,1.49-2.28,2.73-2.63,4.05-8.89,5.03-11.95,7-3.6,2.32-7.68.19-10.33.11-.17,0-.34-.02-.51-.02s-.34.02-.51.02c-2.65.07-6.73,2.21-10.33-.11-3.06-1.97-9.31-2.96-11.95-7-.81-1.24-1.3-1.74-2.28-2.73-1.23-1.24-2.32-2.09-3.42-2.31-.47-.09-1.34-.19-2.09.06-.96.33-1.43.72-1.57.92-.12.16,1.06.57,2.34,1.22,2.45,1.25,4.39,3.62,5.49,5.29,1.26,1.93.88,1.53,2.21,4.68.95,2.24,2.34,3.92,4.26,4.68.84.33,4.54,2.83,5.15,3.56.65.78,1.72,2.5,2.43,4.67.31.95,1.49,3.39,3.6,5.62.46.49,4.57,2.79,6.67,3.08,2.1-.29,6.21-2.59,6.67-3.08,2.11-2.23,3.29-4.68,3.6-5.62.71-2.18,1.78-3.89,2.43-4.67.6-.72,4.31-3.22,5.15-3.56,1.92-.76,3.31-2.44,4.26-4.68,1.33-3.15.95-2.76,2.21-4.68,1.1-1.67,3.04-4.04,5.49-5.29,1.28-.65,2.46-1.06,2.34-1.22-.14-.2-.61-.59-1.57-.92h0Z"/>
              <path d="M132.62,260.19h-.07c-2.21-.32-6.45-2.69-6.97-3.24-2.19-2.31-3.38-4.81-3.71-5.81-.73-2.21-1.81-3.88-2.34-4.51-.54-.64-4.18-3.11-4.95-3.41-1.95-.77-3.47-2.44-4.53-4.95-.41-.97-.66-1.61-.84-2.08-.41-1.04-.48-1.23-1.33-2.52-.71-1.09-2.66-3.77-5.3-5.12-.47-.24-.93-.45-1.31-.62-.9-.41-1.2-.54-1.29-.88l-.06-.23.14-.23c.11-.15.55-.67,1.82-1.1.87-.3,1.84-.17,2.34-.07,1.1.22,2.2.95,3.68,2.45,1,1.02,1.51,1.53,2.34,2.81,1.67,2.56,4.94,3.86,7.83,5.01,1.5.6,2.91,1.16,3.97,1.84,2.39,1.54,5.03.97,7.36.46.96-.21,1.87-.41,2.68-.43l.5-.02.55.02c.81.02,1.72.22,2.68.43,2.33.5,4.97,1.08,7.36-.46,1.06-.69,2.48-1.25,3.97-1.84,2.89-1.15,6.16-2.45,7.83-5.01.84-1.28,1.37-1.83,2.34-2.81,1.48-1.5,2.58-2.23,3.68-2.45.5-.1,1.47-.22,2.34.07h0c1.27.43,1.72.95,1.82,1.1l.14.19-.06.26c-.09.34-.39.47-1.29.88-.38.17-.84.38-1.31.62-2.64,1.35-4.59,4.03-5.3,5.12-.85,1.29-.92,1.48-1.33,2.52-.18.47-.43,1.11-.84,2.08-1.06,2.51-2.58,4.18-4.53,4.95-.77.31-4.41,2.77-4.95,3.41-.53.63-1.61,2.29-2.34,4.51-.33,1-1.52,3.5-3.71,5.81-.52.55-4.76,2.93-6.97,3.23h-.07l.03.02ZM101.3,226.82c.12.06.26.12.38.17.4.18.87.39,1.35.64,2.85,1.46,4.92,4.31,5.68,5.46.9,1.38,1,1.63,1.42,2.71.18.47.43,1.09.83,2.06.95,2.26,2.29,3.74,3.98,4.41.95.38,4.69,2.92,5.35,3.7.71.85,1.8,2.63,2.52,4.84.24.74,1.35,3.17,3.49,5.43.38.39,4.27,2.6,6.31,2.92,2.04-.32,5.94-2.53,6.31-2.92,2.14-2.26,3.24-4.69,3.49-5.43.72-2.21,1.81-3.99,2.52-4.84.66-.79,4.39-3.32,5.35-3.7,1.69-.67,3.03-2.16,3.98-4.41.41-.96.65-1.59.83-2.05.42-1.07.52-1.33,1.42-2.71.76-1.16,2.83-4,5.68-5.46.49-.25.96-.46,1.35-.64.13-.06.26-.12.38-.17-.21-.13-.51-.27-.9-.4-.68-.23-1.5-.1-1.83-.04-.88.17-1.85.85-3.16,2.17-.99,1-1.44,1.46-2.22,2.65-1.84,2.83-5.27,4.19-8.29,5.4-1.45.58-2.82,1.12-3.8,1.75-2.74,1.77-5.72,1.12-8.12.6-.92-.2-1.78-.39-2.5-.41l-.52-.02-.48.02c-.71.02-1.58.21-2.5.41-2.4.52-5.38,1.17-8.12-.6-.98-.63-2.35-1.18-3.8-1.76-3.03-1.2-6.46-2.57-8.29-5.4-.78-1.2-1.23-1.65-2.22-2.65-1.31-1.33-2.29-2-3.16-2.17-.32-.06-1.15-.19-1.83.04-.4.13-.69.28-.9.4h.02Z"/>
            </g>
            <g>
              <path d="M163.19,225.95c-.74-.25-1.62-.15-2.09-.06-1.1.22-2.2,1.07-3.42,2.31-.98,1-1.47,1.49-2.28,2.73-2.63,4.05-8.89,5.03-11.95,7-3.6,2.32-7.68.19-10.33.11-.17,0-.34-.02-.51-.02s-.34.02-.51.02c-2.65.07-6.73,2.21-10.33-.11-3.06-1.97-9.31-2.96-11.95-7-.81-1.24-1.3-1.74-2.28-2.73-1.23-1.24-2.32-2.09-3.42-2.31-.47-.09-1.34-.19-2.09.06-.96.33-1.43.72-1.57.92-.12.16,1.06.57,2.34,1.22,2.45,1.25,4.39,3.62,5.49,5.29,1.26,1.93.88,1.53,2.21,4.68.95,2.24,2.34,3.92,4.26,4.68.84.33,4.54,2.83,5.15,3.56.65.78,1.72,2.5,2.43,4.67.31.95,1.49,3.39,3.6,5.62.46.49,4.57,2.79,6.67,3.08,2.1-.29,6.21-2.59,6.67-3.08,2.11-2.23,3.29-4.68,3.6-5.62.71-2.18,1.78-3.89,2.43-4.67.6-.72,4.31-3.22,5.15-3.56,1.92-.76,3.31-2.44,4.26-4.68,1.33-3.15.95-2.76,2.21-4.68,1.1-1.67,3.04-4.04,5.49-5.29,1.28-.65,2.46-1.06,2.34-1.22-.14-.2-.61-.59-1.57-.92h0Z"/>
              <g class="cls-7">
                <ellipse class="cls-4" cx="132.62" cy="259.68" rx="14.47" ry="11.5"/>
              </g>
              <path class="cls-3" d="M163.19,225.95c-.74-.25-1.62-.15-2.09-.06-1.1.22-2.2,1.07-3.42,2.31-.98,1-1.47,1.49-2.28,2.73-2.63,4.05-8.89,5.03-11.95,7-3.6,2.32-7.68.19-10.33.11-.17,0-.34-.02-.51-.02s-.34.02-.51.02c-2.65.07-6.73,2.21-10.33-.11-3.06-1.97-9.31-2.96-11.95-7-.81-1.24-1.3-1.74-2.28-2.73-1.23-1.24-2.32-2.09-3.42-2.31-.47-.09-1.34-.19-2.09.06-.96.33-1.43.72-1.57.92-.12.16,1.06.57,2.34,1.22,2.45,1.25,4.39,3.62,5.49,5.29,1.26,1.93.88,1.53,2.21,4.68.95,2.24,2.34,3.92,4.26,4.68.84.33,4.54,2.83,5.15,3.56.65.78,1.72,2.5,2.43,4.67.31.95,1.49,3.39,3.6,5.62.46.49,4.57,2.79,6.67,3.08,2.1-.29,6.21-2.59,6.67-3.08,2.11-2.23,3.29-4.68,3.6-5.62.71-2.18,1.78-3.89,2.43-4.67.6-.72,4.31-3.22,5.15-3.56,1.92-.76,3.31-2.44,4.26-4.68,1.33-3.15.95-2.76,2.21-4.68,1.1-1.67,3.04-4.04,5.49-5.29,1.28-.65,2.46-1.06,2.34-1.22-.14-.2-.61-.59-1.57-.92h0Z"/>
            </g>
          </g>
          <g>
            <path class="cls-4" d="M141.47,219.69c0,3.15-2.66,5-6.57,5.69-.38.07-1.03.9-1.43.93-.29.02-.57.03-.87.03s-.56,0-.84-.03c-.69-.05-1-.96-1.64-1.12-3.5-.89-6.38-2.57-6.38-5.5,0-3.67,3.97-6.65,8.86-6.65s8.86,2.98,8.86,6.65h.01Z"/>
            <path d="M132.62,226.74c-.29,0-.67-.03-.95-.09-.59-.13-.7-.28-1.05-.62-.21-.2-.43-.41-.59-.45-4.37-1.11-6.76-3.18-6.76-5.98,0-3.94,4.2-7.15,9.36-7.15s9.36,3.21,9.36,7.15c0,3.12-2.61,4.81-6.98,6.18-.16.05-.21.2-.44.37-.35.27-.58.36-1.05.48-.29.07-.59.12-.89.12h0ZM132.62,215.92c-4.61,0-8.36.28-8.36,3.68,0,2.32.86,2.78,4.79,3.78.42.11,1.7-.53,2.47.06,1.5,1.15-.06,2.06.47,2.36.47.27.87.23,1.31-.07.39-.27-1.11-1.11.22-2.21.77-.64,1.92-.02,2.26-.11,4.41-1.05,5.19-1.53,5.19-3.82,0-3.39-3.75-3.68-8.36-3.68h0Z"/>
          </g>
          <g>
            <g>
              <g>
                <path class="cls-1" d="M162.92,200.83c-4.93,1.54-5.22,2.99-8.79,5.24-4.59,2.9-11.41,2.34-13.22-2.1-1.51-3.71,1.6-11.92,15.07-12.19s18.26,7.64,18.07,8.73c-.2,1.14-5.88-1.33-11.12.32h-.01Z"/>
                <path d="M147.87,208.36c-1.09,0-2.16-.15-3.14-.47-2.08-.67-3.56-1.96-4.29-3.74-.79-1.93-.37-4.5,1.08-6.71,1.47-2.23,5.29-5.99,14.44-6.17,10.26-.18,15.37,4.46,17.09,6.47.79.93,1.6,2.16,1.48,2.85-.17.95-1.3.79-3.18.52-2.11-.3-5.31-.75-8.28.19h0c-3.19,1-4.36,1.94-5.85,3.13-.75.6-1.6,1.29-2.82,2.06-1.93,1.22-4.28,1.87-6.53,1.87h0ZM156.6,192.28h-.61c-8.69.17-12.26,3.65-13.62,5.72-1.53,2.32-1.49,4.56-.99,5.78.77,1.89,2.42,2.76,3.67,3.16,2.74.88,6.2.37,8.83-1.29,1.17-.74,1.96-1.38,2.73-1.99,1.5-1.21,2.8-2.25,6.17-3.31h0c3.19-1,6.52-.53,8.72-.22.76.11,1.68.24,2.04.19-.11-.37-.67-1.44-2.04-2.77-2.04-1.99-6.67-5.26-14.89-5.26h-.01Z"/>
              </g>
              <circle cx="149.39" cy="200.4" r="7.39"/>
            </g>
            <g>
              <g>
                <path class="cls-1" d="M102.31,201.39c5.03,1.15,5.43,2.57,9.17,4.54,4.8,2.53,11.56,1.44,13.02-3.13,1.22-3.82-2.52-11.76-15.97-10.97-13.07.77-17.61,9.05-17.33,10.11.29,1.12,5.76-1.78,11.11-.55Z"/>
                <path d="M116.96,207.77c-1.96,0-3.98-.47-5.72-1.39-1.27-.67-2.18-1.29-2.97-1.83-1.57-1.07-2.81-1.92-6.07-2.67-3.04-.7-6.19,0-8.27.46-1.85.41-2.98.66-3.22-.27-.17-.67.53-1.97,1.25-2.95,1.56-2.14,6.29-7.18,16.53-7.78,9.13-.54,13.24,2.91,14.87,5.02,1.62,2.09,2.24,4.62,1.6,6.6-.58,1.83-1.96,3.23-3.98,4.06-1.23.5-2.61.75-4.03.75h.01ZM99.42,200.58c.98,0,1.99.09,3,.32,3.44.79,4.82,1.73,6.41,2.81.81.55,1.65,1.13,2.88,1.77,2.75,1.45,6.24,1.69,8.9.6,1.21-.5,2.79-1.49,3.41-3.44.4-1.25.26-3.49-1.44-5.69-1.51-1.95-5.35-5.14-14.03-4.63-8.6.51-13.12,4.26-15.04,6.45-1.25,1.42-1.72,2.52-1.81,2.93.36.02,1.27-.18,2.01-.35,1.5-.33,3.53-.78,5.71-.78h0Z"/>
              </g>
              <circle cx="115.76" cy="199.91" r="7.39"/>
            </g>
          </g>
          <g>
            <path d="M156.83,218.49c-10.74,0-19.48-8.74-19.48-19.48s8.74-19.48,19.48-19.48,19.48,8.74,19.48,19.48-8.74,19.48-19.48,19.48ZM156.83,180.52c-10.19,0-18.48,8.29-18.48,18.48s8.29,18.48,18.48,18.48,18.48-8.29,18.48-18.48-8.29-18.48-18.48-18.48Z"/>
            <path d="M108.4,218.49c-10.74,0-19.48-8.74-19.48-19.48s8.74-19.48,19.48-19.48,19.48,8.74,19.48,19.48-8.74,19.48-19.48,19.48ZM108.4,180.52c-10.19,0-18.48,8.29-18.48,18.48s8.29,18.48,18.48,18.48,18.48-8.29,18.48-18.48-8.29-18.48-18.48-18.48Z"/>
          </g>
          <path d="M168.49,161.9c-10.86,2.79-24.33,4.83-.23,2.78-25.03,3.91-27.61,4.38-7.34,3.36-20.37,3.01-17.62,1.63,4.78,6.52-29.26-4.06-33.28-7.11-23.13,13.43-10.2-15.53-8.14-11.52-1.72,3.77-6.78-15.77-6.89-12.13-3.55,5.62-6.5-22.66-4.88-23.62-34.73-18.62,20.79-5.55,23.4-6.38,3.62-5.96,18.48-2.81,11.49-2.49-7.41-3.37,20.66-.59,16.32-1.26-.77-3.71,14.88.64,24.95,3.32-.26-4.08,26.24,4.74,19.34,2.21-2.41-10.47,20.52,10.34,26.43,13.31,10.15,2.39,16.76,7.24,23.68,14.11-3.58-9.44,24.16,16.72,19.43,13.34,2.62-4.22,16.81,17.57,27.74,22.5,25.92-17.58,3.77,30.64,3.01,42.27,20.83,8.09-12.47,28.95-9.6,24.15,4.07,2.82-7.76,14.2-16.06,26.16,4.22,4.06-21.95,28.06-20.37,23.33-3.87,17.1-22.95,14.04-2.2,4.85,12.31.5-15.15,6.17-21.6,9.3.38,2.98-17.19,6.35-12.95,5.9.11,4.04h0Z"/>
        </g>
        <g>
          <g>
            <g>
              <path class="cls-1" d="M64.09,179.12s-2.98-.27-3.66-.35-2.01-2.67-3.15-4.34c-.93-1.36-1.7-2.74-1.79-4.51-.15-2.81.34-3.76.91-5.28.46-1.21.93-2.4,1.79-4.51.66-1.62.89-2.65-.41-3.07-.59-.19-2.6.1-3.39.43-1.62.66-2.26,1.14-3.4,2.13-.79.68-1.46,1.63-1.7,2.3-.42,1.16-.56,2.69-.94,4.85-.18,1.04-.11,2.01-.77,2.89-.38.5-2.15.18-6.13.09-1.86-.04-2.18.05-4.09,1.02-1.53.78-2.52,1.14-3.15,1.79s-1.6,1.82-1.79,2.68c-.11.5-.08,1.94.09,2.43.44,1.24,1.19,1.94,1.19,1.94,0,0-.43.11-1.19.79s-1.36,1.23-1.28,2.81c.07,1.31.78,2,1.62,3.06,0,0,.51.77.09,1.11s-1.2,1.07-1.28,1.96c-.13,1.4.66,2.31,1.11,2.55.72.38,1.47.86,2.21,1.11.32.11.66.23.66.23,0,0-1.2.43-1.28,1.55-.06.94.32,1.89,1.38,2.38,1.76.81,4,.69,5.02.93.64.15,2.72.77,3.66.86,1.87.18,5.56-.1,7.49-.51,3.08-.65,6.07-1.1,7.15-1.36,2.09-.51,3.49-1.02,3.49-1.02l1.53-16.94h0Z"/>
              <path d="M45.84,200.01c-.56,0-1.07-.02-1.5-.06-.76-.07-2.08-.43-3.04-.69-.32-.09-.59-.16-.75-.2-.26-.06-.71-.1-1.18-.14-1.13-.1-2.69-.23-4.03-.85-1.33-.61-2.06-1.87-1.96-3.36.03-.45.17-.84.37-1.16-.3-.15-.6-.32-.89-.48-.18-.1-.37-.21-.55-.3-.75-.4-1.8-1.66-1.63-3.53.09-1.03.74-1.84,1.36-2.41h0s-.26-.33-.26-.33c-.74-.92-1.44-1.78-1.52-3.25-.11-2.08.8-2.89,1.61-3.61.13-.12.25-.22.37-.31-.23-.36-.46-.8-.65-1.34-.25-.71-.25-2.35-.12-2.97.27-1.26,1.64-2.74,2.05-3.17.59-.61,1.34-.97,2.37-1.47.32-.15.66-.32,1.04-.51,2-1.02,2.48-1.18,4.56-1.13,1.26.03,2.3.08,3.14.12.93.05,1.88.09,2.26.04.25-.42.3-.9.37-1.5.03-.27.06-.54.11-.82.1-.61.19-1.16.27-1.68.21-1.35.38-2.42.71-3.34.31-.87,1.11-1.96,1.99-2.72,1.22-1.05,1.94-1.58,3.68-2.3.83-.34,3.12-.76,4.08-.46.7.22,1.19.62,1.45,1.17.45.96.06,2.07-.41,3.23-.89,2.18-1.34,3.31-1.78,4.48l-.16.42c-.49,1.28-.81,2.12-.69,4.46.08,1.48.7,2.67,1.61,4,.35.51.72,1.11,1.08,1.7.47.77,1.18,1.91,1.52,2.23.89.1,3.47.33,3.47.33l1,.09-1.68,18.57-.6.22c-.06.02-1.48.54-3.59,1.05-.52.13-1.4.28-2.52.48-1.33.24-2.99.53-4.66.89-1.52.32-4.21.59-6.29.59v.02ZM35.99,194.17s-.59.24-.62.68c-.03.46.08,1.08.8,1.41,1.03.47,2.33.58,3.37.67.57.05,1.06.09,1.46.19.18.04.47.12.81.21.79.21,2.11.57,2.72.63,1.68.16,5.24-.08,7.18-.49,1.71-.36,3.38-.66,4.73-.9,1.04-.18,1.94-.34,2.39-.45,1.22-.3,2.2-.6,2.79-.79l1.38-15.29c-.94-.09-2.26-.21-2.69-.26-.92-.11-1.56-1.1-2.83-3.15-.34-.56-.69-1.13-1.03-1.61-.96-1.39-1.85-2.96-1.96-5.02-.14-2.76.3-3.93.82-5.28l.15-.4c.45-1.19.9-2.34,1.8-4.54.48-1.17.49-1.52.45-1.63h0s-.06-.05-.24-.11c-.39-.09-2.06.13-2.71.4-1.48.6-2.04,1.02-3.13,1.96-.69.6-1.25,1.41-1.41,1.88-.27.74-.42,1.73-.61,2.97-.08.52-.17,1.09-.28,1.71-.04.24-.07.47-.09.7-.09.81-.2,1.74-.86,2.62-.58.77-1.54.72-3.86.61-.83-.04-1.85-.09-3.09-.12-1.65-.03-1.82,0-3.61.91-.39.2-.75.37-1.08.53-.85.41-1.46.7-1.8,1.06-.77.8-1.43,1.74-1.53,2.19-.08.36-.04,1.6.05,1.89.34.96.92,1.52.92,1.53l1.37,1.26-1.8.45h0s-.28.12-.77.57c-.69.61-1,.89-.94,2.01.04.78.38,1.23,1.08,2.1l.32.4c.55.83.71,1.88-.07,2.51-.53.43-.87.9-.91,1.27-.09.98.47,1.52.58,1.58.19.1.39.21.59.32.52.29,1.01.57,1.47.72.34.11.69.25.69.25l2.55.95-2.56.92h0v-.02Z"/>
            </g>
            <path d="M53.16,184.85c-.09,0-.17-.02-.25-.07l-3.14-1.82c-.24-.14-.32-.44-.18-.68.14-.24.44-.32.68-.18l3.14,1.82c.24.14.32.44.18.68-.09.16-.26.25-.43.25Z"/>
            <path d="M48.98,189.62c-.2,0-.4-.13-.47-.33-.1-.26.04-.55.3-.64l4.52-1.66c.26-.09.55.04.64.3.1.26-.04.55-.3.64l-4.52,1.66c-.06.02-.12.03-.17.03Z"/>
            <path d="M51.24,186.56h-3.35c-.28,0-.5-.22-.5-.5s.22-.5.5-.5h3.35c.28,0,.5.22.5.5s-.22.5-.5.5Z"/>
            <path class="cls-6" d="M41.84,183.53c-1.31,0-7.16-2.25-8.92-2.94l.73-1.86c3.39,1.33,7.49,2.78,8.19,2.8,1.79,0,4.99-1.61,6.4-2.72.36-.29.36-.49.36-.56,0-.28-.25-.62-.43-.75-.23-.18-.69-.39-.92-.44-.55.3-.87.46-1.98.85-1.18.41-3.51.34-4.64.02-1.19-.34-3.43-1.43-4.45-2.28-.72-.6-2.24-2.53-2.41-2.75l1.58-1.23c.59.76,1.69,2.09,2.11,2.44.78.65,2.76,1.62,3.72,1.89.86.25,2.75.25,3.44.02,1.04-.36,1.22-.46,1.77-.76,1.22-.67,2.98.64,2.99.66.56.42,1.21,1.29,1.22,2.33,0,.57-.19,1.41-1.12,2.15-1.39,1.1-5.07,3.15-7.64,3.15v-.02Z"/>
            <path d="M42.58,189.33c-.6,0-1.26-.06-2.02-.15-2.27-.28-7.86-1.67-8.09-1.72l.48-1.94c.06.01,5.71,1.41,7.86,1.68,2.31.29,3.21.2,5.15-.97.86-.52,2.29-1.54,2.68-1.96.83-.88.96-1.08.79-1.68-.34-1.18-1.61-1.22-1.76-1.22l-.03-2c1.01,0,3.08.52,3.71,2.66.51,1.75-.42,2.73-1.23,3.59-.64.68-2.34,1.85-3.12,2.32-1.71,1.03-2.89,1.4-4.41,1.4h0Z"/>
            <path d="M41.18,194.38h0c-2.08,0-7.84-1.22-8.09-1.27l.42-1.96c1.61.34,6.13,1.23,7.68,1.23h0c2.66,0,5.06-1.26,6.61-2.32.31-.21.63-.94.59-1.56-.05-.67-.74-.84-.88-.86l.33-1.97c.82.13,2.42.86,2.55,2.69.08,1.12-.39,2.63-1.46,3.35-1.78,1.22-4.57,2.66-7.73,2.66h-.02Z"/>
            <path d="M43.04,198.84h-.1c-2.34-.08-6.15-.3-6.18-.3l.11-2s3.82.22,6.14.3c.67.02,2.1-.5,2.94-1.18l.4-.31c.74-.58.74-.59.74-1.02-.02-.25-.44-1.21-.86-1.99l1.76-.96c.41.76,1.11,2.15,1.11,2.94,0,1.41-.66,1.94-1.51,2.6l-.38.3c-1.13.91-2.97,1.63-4.17,1.63h0Z"/>
            <rect x="55" y="184.01" width="24.53" height="7.74" rx="2.99" ry="2.99" transform="translate(-125.91 237.94) rotate(-84.83)"/>
          </g>
          <g>
            <path d="M48.04,175.36V7.93l1.81-7.93h-9.99l2.18,7.81v168.67c2.28.73,3.99-1.4,6-1.11h0Z"/>
            <path d="M42.04,197.91v150.13h6v-152.31c-1.76,1.44-4.16.98-6,2.17h0Z"/>
          </g>
        </g>
        <g>
          <g>
            <path class="cls-4" d="M178.3,306.37s2.18,6.24,2.31,7.78-.74,2.13-1.96,2.94c-3.15,2.09-7.1,3.63-12.51,4.43-4.89.72-6.89.5-10.51.28-1.91-.12-4.75-.51-5.06-1.81-.3-1.23-.26-8.48-.26-8.48l27.99-5.13h0Z"/>
            <path d="M160.26,323c-1.27,0-2.45-.08-3.84-.16l-.85-.05c-3.66-.23-5.61-1.07-5.97-2.58-.31-1.29-.29-7.49-.28-8.72v-.83l29.65-5.43.28.81c.23.65,2.23,6.41,2.36,8.02.18,2.14-1.19,3.05-2.4,3.85-3.5,2.31-7.72,3.81-12.92,4.58-2.59.38-4.38.51-6.02.51h0ZM151.3,312.33c0,2.78.05,6.67.23,7.41.04.17.87.85,4.15,1.05l.86.05c3.04.19,5.06.32,9.44-.33,4.9-.72,8.86-2.12,12.1-4.27,1.29-.86,1.59-1.14,1.51-2.02-.08-.92-1.16-4.32-1.98-6.72l-26.33,4.82h.02Z"/>
          </g>
          <ellipse cx="164.26" cy="308.48" rx="15.23" ry="4.51" transform="translate(-49.39 31.9) rotate(-9.65)"/>
          <circle cx="178.85" cy="322.67" r="2.19"/>
          <circle cx="179.48" cy="328.48" r="2.19"/>
          <circle cx="181.67" cy="334.29" r="2.19"/>
          <circle cx="185.31" cy="338.98" r="2.19"/>
          <g>
            <path class="cls-5" d="M179,316.84s.67,11.05,1.09,14.02,5.02,7.06,7.06,9.19,6.15,3.9,8.26,4.94c5.02,2.47,8.77,4.94,10.38,13.28,1.79,9.21-2.21,15.74-11.32,20.43-5.52,2.84-15.91.09-21.45-8-5.93-8.66-5.87-16.09-5.87-16.09,0,0-14.35-9.93-14.38-10.38-.09-1.19.02-5.59.02-7.43,0-.55.45-.62,1.17-.91s.32-1.55,0-2.81c-.27-1.07-1.19-4.6-1.19-7.23s.04-4.53.04-4.53c0,0,7.83.95,12.6.29,7.14-.98,13.59-4.77,13.59-4.77Z"/>
            <path d="M189.49,380.77c-5.83,0-12.99-3.22-17.28-9.51-5.19-7.58-5.93-14.2-6.03-16.11-14.33-9.92-14.35-10.25-14.4-10.84-.07-.85-.03-3.11,0-5.1.01-.94.02-1.8.02-2.4,0-1.15.93-1.51,1.48-1.72l.1-.04c-.02-.32-.18-.93-.28-1.32l-.13-.5c-.33-1.28-1.2-4.69-1.2-7.37s.04-4.55.04-4.55l.02-1.11,1.1.13c.08.01,7.76.93,12.34.3,6.85-.94,13.16-4.6,13.22-4.64l1.41-.82.1,1.62c0,.11.67,11.04,1.09,13.94.31,2.17,3.64,5.48,5.62,7.46.44.44.84.83,1.17,1.18,1.63,1.7,4.85,3.24,6.98,4.25.36.17.7.33,1,.48,5.14,2.53,9.21,5.16,10.92,13.98,1.83,9.43-2.05,16.47-11.84,21.51-1.54.79-3.41,1.18-5.44,1.18h-.01ZM153.75,343.81c1.44,1.22,9.15,6.65,13.97,9.98l.43.3v.53c0,.07.04,7.25,5.7,15.51,5.14,7.51,14.96,3.99,20.06,1.37,9.02-4.64,12.56-4.48,10.9-13.04-1.54-7.93-5.05-10.21-9.84-12.57-.29-.14-.62-.3-.97-.47-2.26-1.08-5.68-2.71-7.56-4.67-.32-.34-.71-.72-1.14-1.15-2.44-2.43-5.79-5.76-6.19-8.59-.33-2.33-.8-9.38-1.01-12.54-2.32,1.18-7.21,3.4-12.55,4.13-3.82.52-9.4.07-11.75-.17,0,.81-.02,2-.02,3.42,0,2.43.85,5.78,1.13,6.88l.13.49c.33,1.26.79,2.99-.69,3.6l-.35.14c-.06.02-.13.05-.2.08,0,.58-.01,1.36-.02,2.2-.02,1.63-.05,3.61-.02,4.58h-.01Z"/>
          </g>
          <polygon points="166.85 354.39 152.77 344.23 152.8 336.8 166.58 346.84 166.85 354.39"/>
          <path d="M167.15,355.55h-.03c-.55-.02-.98-.48-.97-1.03.07-2,.15-7.58-.28-9.43-.35-1.5-1.09-3.08-2.13-5.26-.44-.92-.92-1.94-1.45-3.11-.88-1.94-4.11-11.85-4.25-12.27-.17-.53.12-1.09.64-1.26.53-.17,1.09.12,1.26.64.03.1,3.34,10.23,4.17,12.07.52,1.16,1,2.17,1.44,3.07,1.09,2.29,1.88,3.95,2.27,5.67.57,2.47.34,9.64.33,9.94-.02.54-.46.97-1,.97h0Z"/>
          <path d="M176.86,375.91c-.4,0-.78-.24-.93-.64-.08-.21-2.03-5.25-2.55-9.47-.55-4.5-.55-8.62,0-12.27.6-3.95,2.57-6.86,2.65-6.99.31-.46.93-.57,1.39-.26.46.31.58.93.27,1.39-.02.03-1.8,2.68-2.33,6.16-.53,3.47-.53,7.41,0,11.73.49,3.97,2.41,8.94,2.43,8.99.2.51-.06,1.09-.57,1.29-.12.05-.24.07-.36.07h0Z"/>
          <path d="M203.98,353.56c-.2,0-.41-.06-.59-.19-.04-.03-4.06-2.95-8.59-5.18-2.12-1.05-11.31-3.67-11.41-3.7-.53-.15-.84-.71-.69-1.24s.71-.83,1.24-.69c.39.11,9.46,2.71,11.74,3.83,4.68,2.31,8.71,5.24,8.88,5.36.45.33.54.95.22,1.4-.2.27-.5.41-.81.41h.01Z"/>
          <circle cx="166.47" cy="327.06" r="2.19"/>
          <circle cx="167.21" cy="333.53" r="2.19"/>
          <circle cx="169.04" cy="339.38" r="2.19"/>
          <circle cx="170.85" cy="344.91" r="2.19"/>
          <path d="M171.23,345.91c-.52,0-.96-.4-1-.93-.04-.55.38-1.03.93-1.07.04,0,4.43-.33,8.54-2.11,3.82-1.66,5-3.77,5.01-3.79.26-.48.87-.67,1.35-.41s.67.85.42,1.34c-.06.11-1.45,2.72-5.98,4.7-4.43,1.93-9,2.26-9.2,2.27h-.07Z"/>
          <path d="M170.28,340.44c-.85,0-1.34-.07-1.39-.08-.55-.08-.92-.6-.84-1.14s.6-.92,1.14-.84c.07,0,3.19.43,7.75-1.23,3.12-1.13,4.26-3.24,4.31-3.33.26-.49.86-.68,1.35-.43.49.25.68.85.43,1.34-.06.12-1.5,2.88-5.4,4.3-3.26,1.18-5.85,1.4-7.35,1.4h0Z"/>
          <path d="M167.21,334.53c-.55,0-1-.45-1-1s.45-1,1-1c.04,0,4.46-.03,7.94-1.71,2.86-1.38,4.36-2.99,4.37-3.01.37-.41,1-.43,1.41-.06s.44,1,.07,1.41c-.07.08-1.74,1.9-4.98,3.46-3.91,1.89-8.62,1.91-8.81,1.91Z"/>
          <path d="M256.03,343.89c-2.03,0-4.01-.04-5.93-.11-5.68-.18-15.56-4.12-22.82-7.94-6.45-3.4-17.81-9.12-21.45-10.59-3.43-1.38-10.63-2.23-15.62-2.24-4.95,0-9.43.61-9.48.62-.54.08-1.05-.3-1.13-.85-.08-.55.3-1.05.85-1.13.19-.03,4.65-.63,9.77-.64,5.1.01,12.57.86,16.36,2.38,3.7,1.5,15.14,7.26,21.63,10.68,7.06,3.72,16.58,7.54,21.95,7.72,7.21.23,15.52.23,22.53-1.58,6.51-1.67,12.63-5.15,12.69-5.19.48-.27,1.09-.11,1.36.37.27.48.11,1.09-.37,1.37-.26.15-6.41,3.64-13.18,5.39-5.36,1.38-11.41,1.74-17.16,1.74h0Z"/>
          <path d="M160.85,328.34c-2.8,0-5.96-.24-7.77-1.15-9.21-4.66-13.95-10.95-14.09-18.68-.34-19.66,6.28-28.83,10.67-34.9,2.48-3.44,5.46-6.76,8.33-9.97,4.2-4.69,8.17-9.13,10.13-13.35,3.21-6.91.33-18.97.3-19.09l1.94-.47c.13.52,3.08,12.85-.43,20.4-2.09,4.5-6.15,9.04-10.45,13.84-2.84,3.17-5.78,6.46-8.2,9.81-4.23,5.85-10.62,14.7-10.29,33.69.12,6.94,4.49,12.63,12.99,16.93,2.65,1.34,9.83.93,12.37.66l.21,1.99c-.2.02-2.77.29-5.72.29h.01Z"/>
          <rect x="278.47" y="335.52" width="9.36" height="3.19" rx="1.21" ry="1.21" transform="translate(-119.97 160.14) rotate(-26.27)"/>
          <rect x="167.68" y="225.83" width="3.19" height="9.36" rx="1.21" ry="1.21" transform="translate(-36.52 31.92) rotate(-9.73)"/>
        </g>
        <g>
          <g>
            <path class="cls-5" d="M100.62,289.16s3.24,3.56,4.41,5.11c1.06,1.41,2.6,4.02,3.28,6.23s1.28,4.09,2.17,6.87,1.87,5.44,4.43,6.81,2.21.04,3.91,2.66,5.28,7.3,5.28,7.3l-24.14,17.43-5.23-6.86-3.65,2.48s-1.69,5.45-5.7,10.87c-2.36,1.66-27.15,16.94-27.15,16.94,0,0-10.3,4.38-15.66-5.53-2.55-4.71-2.87-16.04,1.28-22.26,2.04-3.06,4.64-5.51,9.45-7.53,6.38-2.68,10.38-.17,11.74-.43s6.3-3.32,10.38-5.87,5.45-3.57,6.47-7.15-.17-14.3-.17-14.3l18.91-12.77h-.01Z"/>
            <path d="M52.99,366.93c-3.63,0-8.24-1.33-11.3-7-2.56-4.74-3.13-16.6,1.32-23.29,2.43-3.65,5.39-6.01,9.89-7.9,4.96-2.08,8.54-1.23,10.68-.72.48.12,1.09.25,1.27.23,1.22-.23,6.96-3.81,10.03-5.74,3.93-2.46,5.1-3.31,6.04-6.58.79-2.78.12-10.98-.2-13.91l-.07-.6,20.13-13.59.58.64c.13.15,3.29,3.62,4.47,5.18,1.16,1.55,2.73,4.25,3.43,6.54.68,2.21,1.27,4.08,2.17,6.86.84,2.62,1.77,5.07,3.94,6.23.82.44,1.28.56,1.65.65,1.07.28,1.49.58,2.63,2.34,1.66,2.56,5.2,7.19,5.23,7.24l.62.82-25.76,18.6-5.25-6.88-2.59,1.76c-.44,1.3-2.2,6.04-5.74,10.83l-.1.13-.13.09c-2.36,1.66-26.19,16.35-27.2,16.97l-.13.07c-.05.02-2.47,1.02-5.63,1.02h.02ZM59.17,329.43c-1.55,0-3.39.28-5.5,1.17-4.11,1.73-6.81,3.87-9,7.17-4,6-3.51,17.02-1.23,21.22,7.64,5.2,12.45,3.5,13.37,3.13,1.43-.88,24.1-14.66,27-16.63,3.8-5.18,6.29-8.55,6.31-8.6l.1-.33,4.73-3.21,5.21,6.84,22.52-16.26c-1.11-1.47-3.41-4.56-4.7-6.54-.87-1.35-.99-1.38-1.46-1.5-.42-.11-1.06-.27-2.09-.82-2.83-1.51-3.97-4.48-4.91-7.38-.9-2.79-1.49-4.67-2.17-6.88-.61-1.97-2.03-4.47-3.12-5.93-.83-1.1-2.79-3.31-3.77-4.4l-17.7,11.95c.24,2.36,1.01,10.82.07,14.08-1.14,3.99-2.84,5.18-6.9,7.72-5.92,3.7-9.38,5.76-10.73,6.01-.58.11-1.22-.04-2.1-.25-.98-.23-2.3-.55-3.95-.55h.02Z"/>
          </g>
          <g>
            <rect class="cls-4" x="72.82" y="287.93" width="32.02" height="12.17" rx="1.93" ry="1.93" transform="translate(-148.04 98.49) rotate(-33.65)"/>
            <path d="M79.42,308.23c-.19,0-.39-.02-.58-.06-.77-.15-1.43-.6-1.86-1.25l-4.61-6.92c-.89-1.34-.53-3.16.81-4.06l23.45-15.61c.65-.43,1.43-.59,2.2-.43.77.15,1.43.6,1.86,1.25l4.61,6.92c.89,1.34.53,3.16-.81,4.06h0l-23.45,15.61c-.48.32-1.04.49-1.61.49h0ZM98.24,281.85c-.18,0-.36.05-.51.15l-23.45,15.61c-.43.28-.54.86-.26,1.29l4.61,6.92c.14.2.35.34.59.39.24.05.49,0,.7-.13l23.45-15.61c.43-.28.54-.86.26-1.29l-4.61-6.92c-.14-.2-.35-.34-.59-.39-.06-.01-.12-.02-.19-.02h0Z"/>
          </g>
          <path d="M72.18,333.44c-.26,0-.52-.1-.72-.3,0,0-.85-.84-2.49-1.55-.89-.38-4.6-1.31-5.96-1.64-.54-.13-.87-.67-.74-1.21.13-.54.67-.87,1.21-.74.52.12,5.08,1.22,6.28,1.75,2.03.88,3.08,1.94,3.13,1.99.39.39.38,1.03-.02,1.41-.19.19-.45.28-.7.28h.01Z"/>
          <path d="M90.89,338.76c-.1,0-.2-.02-.31-.05-.53-.17-.81-.73-.65-1.26.02-.06,2.1-6.53,2.85-9.2,1.31-4.64,2.3-7.67,2.31-7.7.17-.52.73-.81,1.26-.64.52.17.81.74.64,1.26,0,.03-.99,3.02-2.29,7.62-.76,2.71-2.79,9.01-2.87,9.27-.14.42-.53.69-.95.69h0Z"/>
          <rect x="94.23" y="324.3" width="29.83" height="9.51" transform="translate(-170.61 124.3) rotate(-35.45)"/>
          <circle cx="74.6" cy="328.29" r="2.43"/>
          <circle cx="81.44" cy="324.02" r="2.43"/>
          <circle cx="86.29" cy="309.65" r="2.43"/>
          <circle cx="85.85" cy="317.24" r="2.43"/>
          <path d="M139.99,391.61c-.11,0-.21-.02-.32-.05l-.55-.18c-19.41-6.38-30.4-16-30.97-27.1-.58-11.47,7.65-17.09,14.91-22.05,6.38-4.35,12.4-8.47,11.95-15.9-.81-13.36-17.2-15.97-31.4-16.76-7.7-.43-17.08,1.06-17.17,1.07-.55.09-1.06-.28-1.15-.83-.09-.54.28-1.06.83-1.15.39-.06,9.68-1.53,17.6-1.09,9.65.54,32.26,1.79,33.28,18.64.52,8.57-6.26,13.2-12.82,17.67-7.16,4.89-14.57,9.95-14.04,20.29.52,10.21,11.03,19.2,29.6,25.3l.57.19c.52.18.8.75.63,1.27-.14.42-.53.68-.95.68h0Z"/>
          <path d="M73.28,315.09c-4.02,0-8.7-1.18-12.71-5.31-6.37-6.56-7.97-13.21-5.71-23.71,1.01-4.71,3.23-8.64,5.58-12.79,1.26-2.23,2.57-4.54,3.68-6.99.49-1.08.99-2.18,1.49-3.28,6.8-14.94,13.84-30.39,9.56-40.82l-4.77-11.62c-.21-.51.03-1.1.55-1.3.51-.21,1.1.03,1.3.55l4.77,11.62c4.6,11.22-2.61,27.07-9.59,42.4-.5,1.1-1,2.19-1.49,3.27-1.14,2.53-2.47,4.88-3.76,7.15-2.27,4.02-4.42,7.81-5.37,12.23-2.43,11.29.19,16.75,5.19,21.9,8.22,8.47,19.36,3.11,19.83,2.88.49-.24,1.09-.04,1.34.45s.04,1.09-.45,1.34c-.07.04-4.2,2.04-9.45,2.04h0Z"/>
          <rect x="70.86" y="208.36" width="3.19" height="9.36" rx="1.21" ry="1.21" transform="translate(-74.68 42.78) rotate(-22.05)"/>
          <rect x="136.06" y="385.22" width="3.19" height="9.36" rx="1.21" ry="1.21" transform="translate(-275.8 385.39) rotate(-69.93)"/>
          <g>
            <line class="cls-2" x1="85.46" y1="317.24" x2="80.95" y2="315.88"/>
            <path d="M85.46,318.24c-.1,0-.19-.01-.29-.04l-4.51-1.36c-.53-.16-.83-.72-.67-1.25s.72-.83,1.25-.67l4.51,1.36c.53.16.83.72.67,1.25-.13.43-.53.71-.96.71h0Z"/>
          </g>
          <path d="M81.44,325.02c-.27,0-.55-.11-.75-.33l-3.36-3.75c-.37-.41-.33-1.04.08-1.41s1.04-.33,1.41.08l3.36,3.75c.37.41.33,1.04-.08,1.41-.19.17-.43.25-.67.25h0Z"/>
          <path d="M74.61,329.29c-.32,0-.64-.16-.83-.45l-2.63-3.95c-.31-.46-.18-1.08.28-1.39s1.08-.18,1.39.28l2.63,3.95c.31.46.18,1.08-.28,1.39-.17.11-.36.17-.55.17h0Z"/>
        </g>
      </g>
    </g>
  </g>
</svg>