<?xml version="1.0" encoding="UTF-8"?>
<svg id="Ebene_1" xmlns="http://www.w3.org/2000/svg" version="1.1" xmlns:serif="http://www.serif.com/" xmlns:xlink="http://www.w3.org/1999/xlink" viewBox="0 0 1920 1080">
  <!-- Generator: Adobe Illustrator 29.2.0, SVG Export Plug-In . SVG Version: 2.1.0 Build 108)  -->
  <defs>
    <style>
      .st0 {
        fill: #fff;
        fill-rule: evenodd;
      }
    </style>
  </defs>
  <path class="st0" d="M960,0c298,0,540,242,540,540s-242,540-540,540-540-242-540-540S662,0,960,0ZM960,202.5c-91.7,0-103.2.4-139.2,2-35.9,1.6-60.5,7.3-81.9,15.7-22.2,8.6-41,20.2-59.8,38.9s-30.3,37.6-38.9,59.8c-8.3,21.5-14,46-15.7,81.9-1.6,36-2,47.5-2,139.2s.4,103.2,2,139.2c1.6,35.9,7.3,60.5,15.7,81.9,8.6,22.2,20.2,41,38.9,59.8,18.8,18.8,37.6,30.3,59.8,38.9,21.5,8.3,46,14,81.9,15.7,36,1.6,47.5,2,139.2,2s103.2-.4,139.2-2c35.9-1.6,60.5-7.3,81.9-15.7,22.2-8.6,41-20.2,59.8-38.9,18.8-18.8,30.3-37.6,38.9-59.8,8.3-21.5,14-46,15.7-81.9,1.6-36,2-47.5,2-139.2s-.4-103.2-2-139.2c-1.6-35.9-7.3-60.5-15.7-81.9-8.6-22.2-20.2-41-38.9-59.8-18.8-18.8-37.6-30.3-59.8-38.9-21.5-8.3-46-14-81.9-15.7-36-1.6-47.5-2-139.2-2ZM960,263.3c90.1,0,100.8.3,136.4,2,32.9,1.5,50.8,7,62.7,11.6,15.8,6.1,27,13.4,38.8,25.2,11.8,11.8,19.1,23.1,25.2,38.8,4.6,11.9,10.1,29.8,11.6,62.7,1.6,35.6,2,46.3,2,136.4s-.3,100.8-2,136.4c-1.5,32.9-7,50.8-11.6,62.7-6.1,15.8-13.4,27-25.2,38.8-11.8,11.8-23.1,19.1-38.8,25.2-11.9,4.6-29.8,10.1-62.7,11.6-35.6,1.6-46.3,2-136.4,2s-100.8-.3-136.4-2c-32.9-1.5-50.8-7-62.7-11.6-15.8-6.1-27-13.4-38.8-25.2-11.8-11.8-19.1-23.1-25.2-38.8-4.6-11.9-10.1-29.8-11.6-62.7-1.6-35.6-2-46.3-2-136.4s.3-100.8,2-136.4c1.5-32.9,7-50.8,11.6-62.7,6.1-15.8,13.4-27,25.2-38.8,11.8-11.8,23.1-19.1,38.8-25.2,11.9-4.6,29.8-10.1,62.7-11.6,35.6-1.6,46.3-2,136.4-2h0ZM960,366.7c-95.7,0-173.3,77.6-173.3,173.3s77.6,173.3,173.3,173.3,173.3-77.6,173.3-173.3-77.6-173.3-173.3-173.3h0ZM960,652.5c-62.1,0-112.5-50.4-112.5-112.5s50.4-112.5,112.5-112.5,112.5,50.4,112.5,112.5-50.4,112.5-112.5,112.5ZM1180.7,359.8c0,22.4-18.1,40.5-40.5,40.5s-40.5-18.1-40.5-40.5,18.1-40.5,40.5-40.5,40.5,18.1,40.5,40.5Z"/>
</svg>