<?xml version="1.0" encoding="UTF-8"?>
<svg id="Capa_1" xmlns="http://www.w3.org/2000/svg" version="1.1" xmlns:xlink="http://www.w3.org/1999/xlink" viewBox="0 0 512 512">
  <!-- Generator: Adobe Illustrator 29.2.0, SVG Export Plug-In . SVG Version: 2.1.0 Build 108)  -->
  <defs>
    <style>
      .st0 {
        fill: #fff;
      }
    </style>
  </defs>
  <path class="st0" d="M479.3,210.5c-45.6,0-87.9-14.6-122.5-39.4v178.9c0,89.3-72.7,162-162,162s-66.5-10.9-92.8-29.4c-41.8-29.3-69.2-77.8-69.2-132.7,0-89.3,72.7-162,162-162s14.7.6,21.8,1.6v89.9c-6.9-2.2-14.2-3.4-21.8-3.4-40.8,0-74,33.2-74,74s16.1,53.1,39.7,65.5c10.3,5.4,21.9,8.5,34.3,8.5,39.9,0,72.4-31.7,73.9-71.2V0h88.1c0,7.6.7,15.1,2.1,22.3,6.2,33.5,26.1,62.3,53.7,80.3,19.2,12.5,42.1,19.8,66.7,19.8v88h0Z"/>
</svg>