<?xml version="1.0" encoding="UTF-8"?>
<svg id="Ebene_1" xmlns="http://www.w3.org/2000/svg" version="1.1" xmlns:serif="http://www.serif.com/" xmlns:xlink="http://www.w3.org/1999/xlink" viewBox="0 0 1920 1080">
  <!-- Generator: Adobe Illustrator 29.2.0, SVG Export Plug-In . SVG Version: 2.1.0 Build 108)  -->
  <defs>
    <style>
      .st0 {
        fill: #fff;
        fill-rule: evenodd;
      }
    </style>
  </defs>
  <path class="st0" d="M960,0c298,0,540,242,540,540s-242,540-540,540-540-242-540-540S662,0,960,0ZM1283.4,377.5c-7.8-29-30.6-51.9-59.7-59.7-52.6-14.1-263.7-14.1-263.7-14.1,0,0-211.1,0-263.7,14.1-29,7.8-51.9,30.6-59.7,59.7-14.1,52.6-14.1,162.5-14.1,162.5,0,0,0,109.8,14.1,162.5,7.8,29,30.6,51.9,59.7,59.7,52.6,14.1,263.7,14.1,263.7,14.1,0,0,211.1,0,263.7-14.1,29-7.8,51.9-30.6,59.7-59.7,14.1-52.6,14.1-162.5,14.1-162.5,0,0,0-109.8-14.1-162.5h0ZM892.5,641.3v-202.5l175.4,101.3-175.4,101.3h0Z"/>
</svg>